<?xml version="1.0" encoding="UTF-8" standalone="no"?>
<!-- Created with Inkscape (http://www.inkscape.org/) -->

<svg
   xmlns:dc="http://purl.org/dc/elements/1.1/"
   xmlns:cc="http://creativecommons.org/ns#"
   xmlns:rdf="http://www.w3.org/1999/02/22-rdf-syntax-ns#"
   xmlns:svg="http://www.w3.org/2000/svg"
   xmlns="http://www.w3.org/2000/svg"
   xmlns:sodipodi="http://sodipodi.sourceforge.net/DTD/sodipodi-0.dtd"
   xmlns:inkscape="http://www.inkscape.org/namespaces/inkscape"
   viewBox="0 0 200 200"
   version="1.1"
   id="svg8"
   inkscape:version="0.92.4 (5da689c313, 2019-01-14)"
   sodipodi:docname="circle-cross.svg">
  <defs
     id="defs2" />
  <sodipodi:namedview
     id="base"
     pagecolor="#ffffff"
     bordercolor="#666666"
     borderopacity="1.0"
     inkscape:pageopacity="0.0"
     inkscape:pageshadow="2"
     inkscape:zoom="0.49497475"
     inkscape:cx="292.59328"
     inkscape:cy="355.88767"
     inkscape:document-units="mm"
     inkscape:current-layer="layer2"
     showgrid="false"
     fit-margin-top="0"
     fit-margin-left="0"
     fit-margin-right="0"
     fit-margin-bottom="0"
     inkscape:window-width="1920"
     inkscape:window-height="1017"
     inkscape:window-x="1912"
     inkscape:window-y="-8"
     inkscape:window-maximized="1" />
  <metadata
     id="metadata5">
    <rdf:RDF>
      <cc:Work
         rdf:about="">
        <dc:format>image/svg+xml</dc:format>
        <dc:type
           rdf:resource="http://purl.org/dc/dcmitype/StillImage" />
        <dc:title></dc:title>
      </cc:Work>
    </rdf:RDF>
  </metadata>
  <g
     inkscape:label="Main"
     inkscape:groupmode="layer"
     id="layer1"
     transform="translate(-4.7833213,-48.97772)">
    <g
       inkscape:groupmode="layer"
       id="layer2"
       inkscape:label="CircleCross">
      <path
         style="fill:#d40000;stroke-width:0.83680022"
         d="M 92.939255,248.49028 C 55.740645,243.87641 24.072391,219.1869 11.053888,184.65002 6.4371316,172.40221 4.7833213,163.00099 4.7833213,149.00447 c 0,-24.13031 7.1797467,-44.63744 22.0737317,-63.048125 C 62.135285,42.348382 126.87225,36.430356 169.73107,72.895286 c 42.12481,35.840414 46.97767,99.552284 10.77561,141.470124 -14.36476,16.63276 -34.00243,28.19508 -55.33628,32.58104 -9.20821,1.89309 -23.78587,2.59132 -32.231145,1.54383 z m -12.4089,-64.11437 24.129335,-24.01499 24.12929,24.01499 c 23.97914,23.86554 24.1513,24.01498 27.66474,24.01498 4.87748,0 7.64516,-2.76523 7.64516,-7.63838 0,-3.51031 -0.14966,-3.68232 -24.03632,-27.64018 l -24.03633,-24.10786 24.03633,-24.10789 c 23.88675,-23.95783 24.03632,-24.12987 24.03632,-27.640151 0,-4.87318 -2.76768,-7.63841 -7.64516,-7.63841 -3.51344,0 -3.6856,0.14953 -27.66474,24.014991 L 104.65969,137.64802 80.530355,113.63301 C 56.551245,89.767489 56.379065,89.618019 52.865635,89.618019 c -4.87749,0 -7.64518,2.76523 -7.64518,7.63841 0,3.510281 0.1496,3.682321 24.03633,27.640151 l 24.03634,24.10789 -24.03634,24.10786 c -23.88673,23.95786 -24.03633,24.12987 -24.03633,27.64018 0,4.87315 2.76769,7.63838 7.64518,7.63838 3.51343,0 3.68561,-0.14953 27.66472,-24.01498 z"
         id="path828"
         inkscape:connector-curvature="0" />
    </g>
  </g>
</svg>
