<?xml version="1.0" encoding="UTF-8" standalone="no"?>
<!-- Created with Inkscape (http://www.inkscape.org/) -->

<svg
   xmlns:dc="http://purl.org/dc/elements/1.1/"
   xmlns:cc="http://creativecommons.org/ns#"
   xmlns:rdf="http://www.w3.org/1999/02/22-rdf-syntax-ns#"
   xmlns:svg="http://www.w3.org/2000/svg"
   xmlns="http://www.w3.org/2000/svg"
   xmlns:sodipodi="http://sodipodi.sourceforge.net/DTD/sodipodi-0.dtd"
   xmlns:inkscape="http://www.inkscape.org/namespaces/inkscape"
   viewBox="0 0 755.90552 755.90552"
   version="1.1"
   id="svg8"
   inkscape:version="0.92.4 (5da689c313, 2019-01-14)"
   sodipodi:docname="clear-alert-history.svg">
  <defs
     id="defs2">
    <clipPath
       id="clipPath7892"
       clipPathUnits="userSpaceOnUse">
      <rect
         y="46.779762"
         x="-2.2678571"
         height="166.30951"
         width="223.00595"
         id="rect7894"
         style="fill:none;stroke-width:0.26458332" />
    </clipPath>
    <clipPath
       clipPathUnits="userSpaceOnUse"
       id="clipPath893">
      <rect
         style="fill:#ffffff;fill-opacity:1;stroke-width:0.26458332"
         id="rect895"
         width="145.92915"
         height="109.04597"
         x="46.639202"
         y="90.354897" />
    </clipPath>
    <clipPath
       clipPathUnits="userSpaceOnUse"
       id="clipPath7892-9">
      <rect
         style="fill:none;stroke-width:0.26458332"
         id="rect7894-97"
         width="223.00595"
         height="166.30951"
         x="-2.2678571"
         y="46.779762" />
    </clipPath>
    <clipPath
       id="clipPath893-8"
       clipPathUnits="userSpaceOnUse">
      <rect
         y="90.354897"
         x="46.639202"
         height="109.04597"
         width="145.92915"
         id="rect895-3"
         style="fill:#ffffff;fill-opacity:1;stroke-width:0.26458332" />
    </clipPath>
    <clipPath
       clipPathUnits="userSpaceOnUse"
       id="clipPath7892-0">
      <rect
         style="fill:none;stroke-width:0.26458332"
         id="rect7894-9"
         width="223.00595"
         height="166.30951"
         x="-2.2678571"
         y="46.779762" />
    </clipPath>
  </defs>
  <sodipodi:namedview
     id="base"
     pagecolor="#ffffff"
     bordercolor="#666666"
     borderopacity="1.0"
     inkscape:pageopacity="0.0"
     inkscape:pageshadow="2"
     inkscape:zoom="0.7"
     inkscape:cx="353.25874"
     inkscape:cy="377.53678"
     inkscape:document-units="mm"
     inkscape:current-layer="layer3"
     showgrid="false"
     inkscape:snap-nodes="false"
     fit-margin-top="0"
     fit-margin-left="0"
     fit-margin-right="0"
     fit-margin-bottom="0"
     inkscape:window-width="1920"
     inkscape:window-height="1017"
     inkscape:window-x="1912"
     inkscape:window-y="-8"
     inkscape:window-maximized="1"
     units="mm" />
  <metadata
     id="metadata5">
    <rdf:RDF>
      <cc:Work
         rdf:about="">
        <dc:format>image/svg+xml</dc:format>
        <dc:type
           rdf:resource="http://purl.org/dc/dcmitype/StillImage" />
        <dc:title></dc:title>
      </cc:Work>
    </rdf:RDF>
  </metadata>
  <g
     transform="translate(133.08807,219.47638)"
     id="layer1-4"
     inkscape:label="Main">
    <g
       inkscape:label="Layer 1"
       id="layer1-8"
       transform="matrix(0.59282976,0,0,0.64458115,-17.441292,22.192763)" />
    <g
       clip-path="url(#clipPath893-8)"
       transform="translate(-18.441597,-1.3363477)"
       id="g885">
      <rect
         style="fill:none;stroke-width:0.22035281"
         id="rect7888"
         width="184.25188"
         height="139.61557"
         x="23.119486"
         y="67.301865" />
    </g>
    <g
       inkscape:label="HistoryDoc"
       id="layer1-2"
       transform="translate(-12.424723,57.213839)">
      <rect
         style="fill:none;stroke-width:0.26458332"
         id="rect7888-0"
         width="223.00595"
         height="166.30949"
         x="-2.2678571"
         y="46.779762" />
    </g>
    <g
       inkscape:label="HistoryDoc"
       id="layer2"
       inkscape:groupmode="layer" />
    <g
       inkscape:label="Cross"
       id="layer3"
       inkscape:groupmode="layer">
      <path
         style="fill:#666666;stroke-width:4.96714878"
         d="m -128.26786,531.99769 c -4.47431,-3.45472 -5.419,-82.42624 -4.50407,-376.51752 l 1.15776,-372.14587 330.94258,-1.40534 330.94257,-1.40534 46.27325,56.08584 46.27321,56.0859 v 318.59588 c 0,285.46455 -0.74087,318.94167 -7.12449,321.92089 -10.74319,5.01388 -737.43074,3.82764 -743.96081,-1.21444 z M 595.79302,207.8668 V -82.458636 h -37.38376 c -23.07084,0 -39.45313,-2.51673 -42.78868,-6.5734 -3.3355,-4.05667 -5.40487,-23.980784 -5.40487,-52.039484 v -45.46606 h -308.5288 -308.5287 v 342.36493 342.36488 h 351.3174 351.31741 z M -48.130417,421.8626 c -5.02072,-11.40945 -6.826948,-408.920036 -1.92862,-424.4445561 2.45405,-7.7777699 32.60552,-8.6647899 294.534647,-8.6647899 261.92916,0 292.08061,0.88702 294.53466,8.6647899 4.8983,15.5245201 3.0921,413.0351061 -1.92858,424.4445561 -4.53513,10.3059 -12.53447,10.59556 -292.60608,10.59556 -280.071577,0 -288.070957,-0.28989 -292.606027,-10.59556 z m 107.9392,-57.87742 v -35.60595 h -40.53663 -40.53662 v 35.60595 35.60594 h 40.53662 40.53663 z m 112.601717,0 V 328.37923 H 131.87388 91.337263 v 35.60595 35.60594 h 40.536617 40.53662 z m 112.60175,0 v -35.60595 h -40.53664 -40.53667 v 35.60595 35.60594 h 40.53667 40.53664 z m 112.60173,0 v -35.60595 h -40.53664 -40.53661 v 35.60595 35.60594 h 40.53661 40.53664 z m 112.60173,0 v -35.60595 h -40.53664 -40.53661 v 35.60595 35.60594 h 40.53661 40.53664 z M 59.808783,259.90625 v -35.60599 h -40.53663 -40.53662 v 35.60599 35.60594 h 40.53662 40.53663 z m 112.601717,0 V 224.30026 H 131.87388 91.337263 v 35.60599 35.60594 h 40.536617 40.53662 z m 112.60175,0 v -35.60599 h -40.53664 -40.53667 v 35.60599 35.60594 h 40.53667 40.53664 z m 112.60173,0 v -35.60599 h -40.53664 -40.53661 v 35.60599 35.60594 h 40.53661 40.53664 z m 112.60173,0 v -35.60599 h -40.53664 -40.53661 v 35.60599 35.60594 h 40.53661 40.53664 z M 59.808783,158.56626 v -32.86703 h -40.53663 -40.53662 v 32.86703 32.86704 h 40.53662 40.53663 z m 112.601717,0 V 125.69923 H 131.87388 91.337263 v 32.86703 32.86704 h 40.536617 40.53662 z m 112.60175,0 v -32.86703 h -40.53664 -40.53667 v 32.86703 32.86704 h 40.53667 40.53664 z m 112.60173,0 v -32.86703 h -40.53664 -40.53661 v 32.86703 32.86704 h 40.53661 40.53664 z m 112.60173,0 v -32.86703 h -40.53664 -40.53661 v 32.86703 32.86704 h 40.53661 40.53664 z M 59.808783,54.487334 v -32.86705 h -40.53663 -40.53662 v 32.86705 32.86704 h 40.53662 40.53663 z m 112.601717,0 V 21.620284 H 131.87388 91.337263 v 32.86705 32.86704 h 40.536617 40.53662 z m 112.60175,0 v -32.86705 h -40.53664 -40.53667 v 32.86705 32.86704 h 40.53667 40.53664 z m 112.60173,0 v -32.86705 h -40.53664 -40.53661 v 32.86705 32.86704 h 40.53661 40.53664 z m 112.60173,0 v -32.86705 h -40.53664 -40.53661 v 32.86705 32.86704 h 40.53661 40.53664 z m 63.05696,-171.477344 c 0,-0.9154 -7.09391,-10.02658 -15.76422,-20.24702 l -15.76426,-18.58264 v 20.24697 c 0,19.48758 0.5913,20.24703 15.76426,20.24703 8.67031,0 15.76422,-0.74899 15.76422,-1.66434 z"
         id="path826"
         inkscape:connector-curvature="0" />
      <g
         transform="matrix(4.2001633,0,0,4.2557938,-354.37441,-659.85125)"
         id="layer1-5"
         inkscape:label="Layer 1">
        <path
           inkscape:connector-curvature="0"
           id="path3724"
           d="m 72.012588,187.1693 c -3.51398,-1.31082 -6.44506,-6.29676 -6.44506,-10.96345 0,-4.35786 3.07271,-11.77845 7.61369,-18.38707 2.91156,-4.23727 8.73166,-11.13396 13.75742,-16.30225 1.75591,-1.80571 3.08622,-3.42538 2.95623,-3.59927 -0.56301,-0.75314 -14.1193,-5.30012 -22.09728,-7.41175 -4.78348,-1.26611 -9.399701,-2.59516 -10.258274,-2.95346 -2.432446,-1.01512 -3.64307,-2.31314 -3.897427,-4.1788 -0.288661,-2.11728 0.890271,-3.79286 3.783355,-5.37714 8.456276,-4.63075 21.164506,-2.13323 39.333456,7.7301 2.2745,1.23476 4.297122,2.19538 4.494702,2.13473 0.19758,-0.0606 3.23771,-2.29666 6.75583,-4.96891 8.10486,-6.15617 14.38722,-10.42364 20.89199,-14.19148 6.1283,-3.54978 7.83942,-4.29951 8.523,-3.73437 0.94454,0.78089 -0.21547,2.13098 -6.24792,7.27171 -7.95547,6.77948 -12.07693,10.71164 -17.71795,16.90412 l -4.62644,5.07872 3.23298,2.27574 c 1.77813,1.25166 6.6122,5.02274 10.74236,8.38018 11.32432,9.20561 18.67902,16.32841 25.53064,24.72564 3.60899,4.42311 4.40819,5.89979 3.19307,5.89979 -0.30958,0 -3.06928,-2.11717 -6.13266,-4.70482 -9.8916,-8.35546 -28.65495,-19.92859 -41.09648,-25.3481 l -2.96783,-1.29277 -3.645782,5.25602 c -6.85751,9.8863 -11.52794,18.70153 -14.73917,27.8195 -1.70616,4.84448 -3.77236,8.48283 -5.34965,9.42016 -1.52762,0.90781 -3.94083,1.13123 -5.5868,0.51723 z"
           style="fill:#e40000;fill-opacity:1;stroke-width:0.4055379" />
      </g>
      <g
         transform="matrix(4.8809148,0,0,4.7249138,-40.362727,-335.68895)"
         id="g844">
        <g
           transform="translate(-16.914435,-18.993303)"
           id="g7865">
          <path
             inkscape:connector-curvature="0"
             d="m 163.87695,0 c -11.93431,0 -19.74439,9.0896075 -19.75195,22.992188 -0.005,6.945663 -0.41895,8.18164 -2.73633,8.18164 -1.50172,0 -7.37366,2.475055 -13.05078,5.5 -15.84688,8.443767 -28.10595,23.981128 -34.402343,43.601563 -0.825347,2.571893 -1.924537,23.965229 -2.443359,47.541019 l -0.94336,42.86523 -4.427734,11.82031 c -2.435407,6.50106 -8.163206,17.92324 -12.728516,25.38282 -8.758979,14.31189 -10.148186,20.08572 -5.470703,22.75195 1.688096,0.96223 14.979261,1.61328 32.927735,1.61328 h 30.09766 v 3.94727 c 0,9.68224 8.07448,21.86771 17.93164,27.06445 7.7616,4.09194 21.12775,4.39812 28.53906,0.65234 10.28126,-5.19628 19.38672,-18.32827 19.38672,-27.95703 V 232.25 h 30.09765 c 17.94849,0 31.2416,-0.65105 32.92969,-1.61328 4.63714,-2.64321 3.31055,-8.67968 -4.67578,-21.28516 -9.40728,-14.84821 -15.17799,-28.29355 -17.23828,-40.16406 -0.87931,-5.06615 -1.59766,-24.56569 -1.59766,-43.33203 0,-32.375522 -0.19105,-34.721388 -3.70703,-45.876954 -6.36351,-20.190161 -17.63789,-34.21879 -34.90625,-43.429688 -5.54135,-2.955779 -10.97498,-5.375 -12.07422,-5.375 -1.43467,0 -2.00012,-2.307397 -2.0039,-8.18164 C 183.61961,9.0896075 175.8113,0 163.87695,0 Z m -0.67187,15.074219 c 3.34451,-0.293844 7.25781,4.229778 7.25781,9.085937 0,3.579326 -0.53684,3.896485 -6.58594,3.896485 -5.51644,0 -6.58593,-0.485693 -6.58593,-2.990235 0,-4.603049 1.54131,-7.855425 4.52929,-9.558594 0.44156,-0.251676 0.90698,-0.391616 1.38477,-0.433593 z m 1.14062,27.847656 c 3.1812,0.04948 6.44324,0.31765 9.77539,0.814453 26.54359,3.957468 43.90806,23.318763 47.52344,52.990234 0.77771,6.382758 1.43253,26.181998 1.45899,43.998048 0.0398,28.53139 0.40683,33.54851 3.07812,42.08594 2.747,8.77946 8.48777,21.06753 14.17774,30.3457 l 2.15039,3.50781 H 163.87695 85.244141 l 2.121093,-3.50781 c 6.306667,-10.4262 10.115192,-18.75601 13.486326,-29.5 3.55665,-11.33507 3.75562,-13.71783 3.78321,-45.20508 0.0159,-18.28082 0.67827,-38.02492 1.47265,-43.876951 4.36281,-32.139992 27.48668,-52.130691 58.23828,-51.652344 z M 144.32422,232.25 h 19.55273 19.55274 l -1.32617,4.92578 c -1.80651,6.70874 -6.72031,11.91663 -12.9961,13.77344 -5.89848,1.74516 -5.18397,1.75201 -11.16601,-0.0996 -5.59703,-1.7325 -10.56378,-7.25937 -12.29102,-13.67383 z"
             style="fill:#000000;stroke-width:1.5103606"
             transform="matrix(0.26458333,0,0,0.26458333,67.387965,124.91123)"
             id="path7840" />
          <path
             style="fill:#ffff00;stroke-width:0.50507629"
             d="m 339.70663,688.76928 c 0,-0.11305 1.3537,-2.48535 3.00824,-5.27179 5.44384,-9.16809 9.1332,-17.31477 12.32574,-27.21714 3.33872,-10.3558 3.33979,-10.36713 3.86819,-41.29919 0.58696,-34.36029 1.17094,-46.68472 2.52753,-53.34161 3.74859,-18.39463 14.47841,-33.13769 29.70458,-40.81485 8.39891,-4.23481 19.45002,-6.43548 29.75061,-5.92441 15.72631,0.78027 27.70722,5.46984 37.28725,14.59498 11.75754,11.19925 17.52557,25.19485 18.90482,45.87081 0.286,4.2874 0.63848,18.81856 0.78328,32.29147 0.29252,27.21587 0.81151,37.10863 2.27408,43.34698 1.85298,7.90358 8.1318,22.13181 14.59672,33.07715 1.40401,2.37705 2.55275,4.45044 2.55275,4.60753 0,0.15709 -35.45635,0.28562 -78.79189,0.28562 -43.33555,0 -78.7919,-0.0925 -78.7919,-0.20555 z"
             id="path7858"
             inkscape:connector-curvature="0"
             transform="scale(0.26458333)" />
          <path
             style="fill:#ffff00;stroke-width:0.50507629"
             d="m 414.93377,723.88058 c -5.64847,-1.42316 -10.58185,-5.20778 -13.00998,-9.98053 -0.94099,-1.84964 -3.12324,-8.36237 -3.12324,-9.32106 0,-0.25805 8.44883,-0.45187 19.69798,-0.45187 16.51137,0 19.69797,0.11395 19.69797,0.70441 0,1.39332 -2.13327,7.67143 -3.28481,9.66703 -1.57304,2.72604 -5.83691,6.64796 -8.51603,7.83306 -1.1942,0.52825 -3.52957,1.27733 -5.1897,1.66461 -2.66225,0.62106 -3.40237,0.60741 -6.27219,-0.11565 z"
             id="path7860"
             inkscape:connector-curvature="0"
             transform="scale(0.26458333)" />
        </g>
        <rect
           transform="matrix(0.79270889,-0.60960038,0.61929623,0.78515742,0,0)"
           y="166.65253"
           x="12.547946"
           height="1.7399375"
           width="19.7806"
           id="rect931"
           style="opacity:1;fill:#000000;fill-opacity:1;stroke-width:0.20330802;paint-order:normal" />
        <rect
           transform="matrix(0.99996319,-0.00858047,0.02086875,0.99978222,0,0)"
           y="138.28073"
           x="111.95614"
           height="1.7399375"
           width="19.7806"
           id="rect931-5"
           style="opacity:1;fill:#000000;fill-opacity:1;stroke-width:0.20330802;paint-order:normal" />
        <rect
           transform="matrix(0.76819995,0.64020999,-0.63072094,0.77600972,0,0)"
           y="46.320324"
           x="115.22353"
           height="1.7399375"
           width="19.7806"
           id="rect931-9"
           style="opacity:1;fill:#000000;fill-opacity:1;stroke-width:0.20330802;paint-order:normal" />
        <rect
           transform="matrix(0.99995805,0.00915954,0.00313002,0.9999951,0,0)"
           y="136.64163"
           x="51.683674"
           height="1.7399375"
           width="19.7806"
           id="rect931-2"
           style="opacity:1;fill:#000000;fill-opacity:1;stroke-width:0.20330802;paint-order:normal" />
      </g>
    </g>
    <g
       inkscape:label="Alarm"
       id="layer4"
       inkscape:groupmode="layer" />
  </g>
</svg>
