<?xml version="1.0" encoding="UTF-8" standalone="no"?>
<!-- Created with Inkscape (http://www.inkscape.org/) -->

<svg
   xmlns:dc="http://purl.org/dc/elements/1.1/"
   xmlns:cc="http://creativecommons.org/ns#"
   xmlns:rdf="http://www.w3.org/1999/02/22-rdf-syntax-ns#"
   xmlns:svg="http://www.w3.org/2000/svg"
   xmlns="http://www.w3.org/2000/svg"
   xmlns:sodipodi="http://sodipodi.sourceforge.net/DTD/sodipodi-0.dtd"
   xmlns:inkscape="http://www.inkscape.org/namespaces/inkscape"
   viewBox="0 0 200 200"
   version="1.1"
   id="svg8"
   inkscape:version="0.92.4 (5da689c313, 2019-01-14)"
   sodipodi:docname="disconnect-call.svg">
  <defs
     id="defs2" />
  <sodipodi:namedview
     id="base"
     pagecolor="#ffffff"
     bordercolor="#666666"
     borderopacity="1.0"
     inkscape:pageopacity="0.0"
     inkscape:pageshadow="2"
     inkscape:zoom="0.98994949"
     inkscape:cx="251.41216"
     inkscape:cy="384.30338"
     inkscape:document-units="mm"
     inkscape:current-layer="layer6"
     showgrid="false"
     fit-margin-top="0"
     fit-margin-left="0"
     fit-margin-right="0"
     fit-margin-bottom="0"
     inkscape:window-width="1920"
     inkscape:window-height="1017"
     inkscape:window-x="1912"
     inkscape:window-y="-8"
     inkscape:window-maximized="1" />
  <metadata
     id="metadata5">
    <rdf:RDF>
      <cc:Work
         rdf:about="">
        <dc:format>image/svg+xml</dc:format>
        <dc:type
           rdf:resource="http://purl.org/dc/dcmitype/StillImage" />
        <dc:title></dc:title>
      </cc:Work>
    </rdf:RDF>
  </metadata>
  <g
     inkscape:label="Layer 1"
     inkscape:groupmode="layer"
     id="layer1"
     transform="translate(-0.17299488,-97.493337)">
    <g
       transform="translate(28.927892,87.10011)"
       inkscape:label="ColoredPhone"
       id="layer6">
      <path
         style="fill:#ff0000;stroke-width:0.81332475"
         d="m 58.584655,209.88411 c -37.527931,-5.19868 -69.181553,-30.65808 -81.647064,-65.66969 -5.858922,-16.45586 -7.317394,-37.10008 -3.805588,-53.86689 8.231453,-39.300376 38.853701,-69.917674 78.132375,-78.11974 9.744137,-2.034756 26.732127,-2.4498484 35.908627,-0.877426 41.727855,7.150138 73.813955,38.170384 82.552835,79.81044 2.01688,9.610376 2.02724,28.802596 0.0216,38.224416 -3.02552,14.20574 -9.04208,28.31961 -16.64128,39.03769 -4.81276,6.78804 -16.96912,18.94322 -23.75782,23.75552 -10.64144,7.54338 -24.94696,13.65914 -38.634795,16.5167 -7.66484,1.60016 -24.62792,2.22794 -32.12788,1.18898 z m 79.043985,-78.08155 c 2.38466,-2.38442 2.4535,-2.6626 2.1742,-8.7853 -0.2441,-5.35072 -0.7651,-7.2872 -3.38856,-12.59468 C 130.84684,99.159298 123.79864,93.86996 109.8266,90.469776 98.585415,87.734186 90.892975,87.060218 69.909765,86.97252 43.874868,86.8637 31.161037,88.822968 20.09551,94.649114 10.799643,99.543558 3.350783,111.39934 2.643003,122.42702 2.264431,128.3254 2.320745,128.5553 4.735771,130.9701 l 2.481816,2.48156 H 20.74105 c 15.225775,0 17.436319,-0.58434 19.084773,-5.04468 3.707555,-10.03186 6.959173,-14.14154 13.954292,-17.6367 15.81982,-7.9045 36.78299,-3.8387 44.71854,8.67316 1.33156,2.09942 2.813785,5.28668 3.293865,7.08278 1.83458,6.86384 3.96838,7.666 20.50044,7.70688 l 12.87306,0.032 2.46262,-2.4624 z"
         id="path4892"
         inkscape:connector-curvature="0" />
      <path
         style="fill:none;stroke:none;stroke-width:0.50507629"
         d="m 422.82394,427.08781 c -6.81734,-0.66402 -9.17029,-2.44827 -11.12743,-8.438 -2.64501,-8.09491 -6.61376,-13.57574 -12.85136,-17.7477 -11.81335,-7.90126 -29.13085,-9.36646 -43.17131,-3.65265 -10.08387,4.10366 -15.22925,9.52012 -19.49021,20.51704 -1.04368,2.6936 -2.36969,5.16968 -3.16176,5.904 -2.60156,2.41189 -3.83134,2.57327 -21.32064,2.79775 l -16.42092,0.21077 -2.97138,-3.11518 -2.97138,-3.11519 0.30702,-5.64293 c 0.55526,-10.20557 3.86395,-18.43967 10.7884,-26.84832 8.21945,-9.98123 21.93339,-15.29308 45.1143,-17.47424 8.09974,-0.76212 44.73872,-0.7245 53.94397,0.0554 11.71599,0.99261 24.76779,3.7793 32.92915,7.0307 11.07473,4.41205 20.63681,15.53426 24.51446,28.51419 0.87841,2.94036 1.56364,12.59789 1.04147,14.67836 -0.19193,0.76474 -1.50782,2.61574 -2.92419,4.11334 l -2.57521,2.72291 -12.93246,-0.0706 c -7.11285,-0.0389 -14.63708,-0.23668 -16.72052,-0.43961 z"
         id="path4894"
         inkscape:connector-curvature="0"
         transform="matrix(0.26458333,0,0,0.26458333,-28.927892,9.89989)" />
      <path
         style="fill:none;stroke:none;stroke-width:0.50507629"
         d="m 422.82394,427.08781 c -6.81734,-0.66402 -9.17029,-2.44827 -11.12743,-8.438 -2.64501,-8.09491 -6.61376,-13.57574 -12.85136,-17.7477 -11.81335,-7.90126 -29.13085,-9.36646 -43.17131,-3.65265 -10.08387,4.10366 -15.22925,9.52012 -19.49021,20.51704 -1.04368,2.6936 -2.36969,5.16968 -3.16176,5.904 -2.60156,2.41189 -3.83134,2.57327 -21.32064,2.79775 l -16.42092,0.21077 -2.97138,-3.11518 -2.97138,-3.11519 0.30702,-5.64293 c 0.55526,-10.20557 3.86395,-18.43967 10.7884,-26.84832 8.21945,-9.98123 21.93339,-15.29308 45.1143,-17.47424 8.09974,-0.76212 44.73872,-0.7245 53.94397,0.0554 11.71599,0.99261 24.76779,3.7793 32.92915,7.0307 11.07473,4.41205 20.63681,15.53426 24.51446,28.51419 0.87841,2.94036 1.56364,12.59789 1.04147,14.67836 -0.19193,0.76474 -1.50782,2.61574 -2.92419,4.11334 l -2.57521,2.72291 -12.93246,-0.0706 c -7.11285,-0.0389 -14.63708,-0.23668 -16.72052,-0.43961 z"
         id="path4896"
         inkscape:connector-curvature="0"
         transform="matrix(0.26458333,0,0,0.26458333,-28.927892,9.89989)" />
    </g>
  </g>
</svg>
