<?xml version="1.0" encoding="UTF-8" standalone="no"?>
<!-- Created with Inkscape (http://www.inkscape.org/) -->

<svg
   xmlns:dc="http://purl.org/dc/elements/1.1/"
   xmlns:cc="http://creativecommons.org/ns#"
   xmlns:rdf="http://www.w3.org/1999/02/22-rdf-syntax-ns#"
   xmlns:svg="http://www.w3.org/2000/svg"
   xmlns="http://www.w3.org/2000/svg"
   xmlns:sodipodi="http://sodipodi.sourceforge.net/DTD/sodipodi-0.dtd"
   xmlns:inkscape="http://www.inkscape.org/namespaces/inkscape"
   viewBox="0 0 200 200"
   version="1.1"
   id="svg8"
   inkscape:version="0.92.4 (5da689c313, 2019-01-14)"
   sodipodi:docname="listen.svg">
  <defs
     id="defs2" />
  <sodipodi:namedview
     id="base"
     pagecolor="#ffffff"
     bordercolor="#666666"
     borderopacity="1.0"
     inkscape:pageopacity="0.0"
     inkscape:pageshadow="2"
     inkscape:zoom="0.49497475"
     inkscape:cx="241.41647"
     inkscape:cy="370.14967"
     inkscape:document-units="mm"
     inkscape:current-layer="layer2"
     showgrid="false"
     fit-margin-top="0"
     fit-margin-left="0"
     fit-margin-right="0"
     fit-margin-bottom="0"
     inkscape:window-width="1920"
     inkscape:window-height="1017"
     inkscape:window-x="1912"
     inkscape:window-y="-8"
     inkscape:window-maximized="1" />
  <metadata
     id="metadata5">
    <rdf:RDF>
      <cc:Work
         rdf:about="">
        <dc:format>image/svg+xml</dc:format>
        <dc:type
           rdf:resource="http://purl.org/dc/dcmitype/StillImage" />
        <dc:title></dc:title>
      </cc:Work>
    </rdf:RDF>
  </metadata>
  <g
     inkscape:label="Main"
     inkscape:groupmode="layer"
     id="layer1"
     transform="translate(-5.8390487,-34.938463)">
    <g
       inkscape:groupmode="layer"
       id="layer4"
       inkscape:label="Listening">
      <g
         inkscape:groupmode="layer"
         id="layer3"
         inkscape:label="SoundWaves" />
      <g
         inkscape:groupmode="layer"
         id="layer2"
         inkscape:label="Ear">
        <g
           id="g852"
           transform="matrix(1.783305,0,0,1.6110551,-75.113973,-103.08525)">
          <path
             d="m 83.878695,196.04838 c -1.078609,-0.46982 -2.184922,-1.82763 -2.343926,-2.87678 -0.07103,-0.46866 -0.200017,-1.86413 -0.286646,-3.10106 -0.548535,-7.83224 -3.871233,-15.02649 -9.287134,-20.10833 -4.531609,-4.2521 -9.860222,-6.57262 -16.153513,-7.03457 -2.839768,-0.20846 -3.807941,-0.67294 -4.630965,-2.22172 -1.025424,-1.92967 -0.263096,-4.33166 1.691169,-5.32866 0.997945,-0.50911 1.395259,-0.55288 3.766752,-0.41494 17.513311,1.01864 31.791762,16.34745 32.579318,34.97593 0.172908,4.08985 -0.106995,4.90391 -2.024139,5.88698 -1.31549,0.67455 -2.146065,0.73052 -3.310916,0.22315 z m -12.623244,1.05538 c -0.547082,-0.1969 -1.191027,-0.52048 -1.430991,-0.71905 -0.790686,-0.65431 -1.398831,-2.41164 -1.406813,-4.06521 -0.0089,-1.85404 -0.777674,-5.25645 -1.614014,-7.14375 -2.757414,-6.22241 -8.871087,-10.69625 -14.651262,-10.72144 -2.827629,-0.0123 -4.642396,-1.62657 -4.639022,-4.12646 0.0026,-1.92178 1.04845,-3.27172 2.959304,-3.81975 1.381573,-0.39623 5.591116,0.18721 8.47514,1.17464 3.561965,1.21956 6.448944,3.01235 9.209535,5.71905 3.564123,3.49455 5.858793,7.37017 7.255036,12.25349 0.792025,2.77009 1.29499,7.40671 0.93835,8.65024 -0.682199,2.37869 -2.89085,3.59165 -5.095263,2.79824 z m -13.041338,0.7967 c -0.443777,-0.1933 -1.117222,-0.72029 -1.496546,-1.17109 -0.65521,-0.77867 -0.761752,-1.15886 -1.132897,-4.04268 -0.205846,-1.59944 -1.583943,-3.86058 -2.926071,-4.801 -0.751185,-0.52636 -1.612837,-0.82702 -2.887307,-1.00751 -3.040832,-0.43064 -4.376353,-1.69074 -4.376353,-4.12923 0,-1.75232 0.894927,-3.05453 2.527726,-3.6781 1.070631,-0.40888 1.466487,-0.42812 3.248345,-0.15794 5.233331,0.79354 9.860479,4.70826 11.678272,9.88021 0.694803,1.97684 1.132141,4.8683 0.923303,6.1044 -0.424236,2.51104 -3.220082,4.02148 -5.558472,3.00294 z"
             style="fill:#005100;fill-opacity:1;stroke-width:0.26458332"
             id="path837"
             inkscape:connector-curvature="0" />
          <path
             d="m 141.6462,155.80778 c -1.87804,-1.05869 -9.25442,-12.19668 -11.21499,-16.93411 -0.66331,-1.60278 -0.766,-2.19043 -0.76291,-4.36563 0.002,-1.38245 0.21032,-3.98298 0.46302,-5.77896 0.56352,-4.00504 0.58995,-8.84789 0.0606,-11.0933 -0.47906,-2.03191 -1.4195,-3.92605 -2.4207,-4.87553 -1.79879,-1.70588 -5.73178,-2.60295 -9.11401,-2.0788 -3.87815,0.60099 -5.8927,2.47717 -6.7376,6.27481 -0.59771,2.68662 -0.39343,8.4729 0.41417,11.73095 1.13063,4.56126 0.97111,6.15221 -0.73896,7.36988 -2.53025,1.8017 -5.36678,0.55006 -6.4149,-2.83062 -1.59976,-5.15995 -2.1616,-13.34356 -1.21079,-17.63614 1.15875,-5.23139 4.13144,-9.29045 8.23315,-11.24192 3.01113,-1.43261 4.47417,-1.72411 8.59896,-1.71328 5.80644,0.0153 9.44847,1.35533 12.7636,4.69635 4.83813,4.87589 6.114,12.28084 4.26699,24.7648 -0.4925,3.32879 -0.42789,3.55427 2.34138,8.17031 1.9155,3.19294 2.51167,4.07663 5.45421,8.0848 1.41034,1.92108 1.73487,2.55691 1.83455,3.5942 0.13539,1.40906 -0.26407,2.41329 -1.37151,3.44791 -0.8726,0.81523 -3.32708,1.04403 -4.44421,0.41428 z m -24.11004,53.84352 c -5.01597,-0.8975 -9.7698,-3.40708 -12.87836,-6.79858 -5.097132,-5.56109 -7.543293,-12.79771 -9.373845,-27.73114 -1.972026,-16.08759 -2.327468,-17.98969 -4.418607,-23.64565 -7.141265,-19.31518 -7.95319,-38.24162 -2.135905,-49.78927 4.280816,-8.497661 11.173355,-13.443651 21.620707,-15.514701 3.32916,-0.65997 13.47764,-0.66697 16.93333,-0.0117 7.74853,1.4693 13.85007,4.47277 18.66834,9.18944 7.77453,7.610591 11.84444,19.168151 11.58254,32.891671 l -0.0884,4.6314 -0.818,1.01607 c -0.98785,1.22704 -2.49442,1.83473 -3.89652,1.57169 -1.22701,-0.23019 -2.73445,-1.52038 -2.95625,-2.5302 -0.092,-0.41897 -0.20523,-3.06312 -0.25157,-5.87589 -0.0977,-5.93237 -0.68315,-9.83522 -2.11874,-14.12544 -4.19179,-12.52695 -12.69517,-18.647231 -26.8683,-19.338341 -10.69853,-0.52169 -19.04223,2.83381 -23.316093,9.376781 -6.277403,9.61025 -5.719122,27.13534 1.485185,46.62184 1.969608,5.32748 2.692348,9.13566 4.368618,23.01875 1.77937,14.73692 3.69965,20.90303 7.79421,25.02754 3.26737,3.29126 7.07432,4.54226 12.96834,4.26153 4.82428,-0.22978 8.1608,-1.35792 11.93823,-4.03653 6.46352,-4.58333 11.21209,-14.82126 12.63805,-27.24765 0.36736,-3.20126 0.66169,-3.90877 2.06063,-4.95323 1.66176,-1.24068 4.54325,-0.52242 5.58473,1.39209 0.43051,0.79137 0.4828,1.29158 0.35961,3.43958 -0.3873,6.75295 -2.61302,14.9679 -5.76067,21.26217 -3.59514,7.18906 -8.26351,12.10527 -14.37813,15.14144 -4.42927,2.19932 -7.12809,2.81074 -12.83229,2.90718 -2.54661,0.0431 -5.2065,-0.0248 -5.91086,-0.15086 z"
             style="fill:#000000;stroke-width:0.26458332"
             id="path826"
             inkscape:connector-curvature="0" />
        </g>
      </g>
    </g>
  </g>
</svg>
