<?xml version="1.0" encoding="UTF-8" standalone="no"?>
<!-- Created with Inkscape (http://www.inkscape.org/) -->

<svg
   xmlns:dc="http://purl.org/dc/elements/1.1/"
   xmlns:cc="http://creativecommons.org/ns#"
   xmlns:rdf="http://www.w3.org/1999/02/22-rdf-syntax-ns#"
   xmlns:svg="http://www.w3.org/2000/svg"
   xmlns="http://www.w3.org/2000/svg"
   xmlns:sodipodi="http://sodipodi.sourceforge.net/DTD/sodipodi-0.dtd"
   xmlns:inkscape="http://www.inkscape.org/namespaces/inkscape"
   viewBox="0 0 200 200"
   version="1.1"
   id="svg8"
   inkscape:version="0.92.4 (5da689c313, 2019-01-14)"
   sodipodi:docname="park-car.svg">
  <defs
     id="defs2" />
  <sodipodi:namedview
     id="base"
     pagecolor="#ffffff"
     bordercolor="#666666"
     borderopacity="1.0"
     inkscape:pageopacity="0.0"
     inkscape:pageshadow="2"
     inkscape:zoom="0.49497475"
     inkscape:cx="373.28318"
     inkscape:cy="455.91204"
     inkscape:document-units="mm"
     inkscape:current-layer="layer3"
     showgrid="false"
     fit-margin-top="0"
     fit-margin-left="0"
     fit-margin-right="0"
     fit-margin-bottom="0"
     inkscape:window-width="1920"
     inkscape:window-height="1017"
     inkscape:window-x="1912"
     inkscape:window-y="-8"
     inkscape:window-maximized="1" />
  <metadata
     id="metadata5">
    <rdf:RDF>
      <cc:Work
         rdf:about="">
        <dc:format>image/svg+xml</dc:format>
        <dc:type
           rdf:resource="http://purl.org/dc/dcmitype/StillImage" />
        <dc:title></dc:title>
      </cc:Work>
    </rdf:RDF>
  </metadata>
  <g
     inkscape:label="Main"
     inkscape:groupmode="layer"
     id="layer1"
     transform="translate(-5.1691286,-27.427545)">
    <g
       inkscape:groupmode="layer"
       id="layer2"
       inkscape:label="ParkCar"
       transform="translate(5.1691286,27.427545)">
      <g
         inkscape:groupmode="layer"
         id="layer4"
         inkscape:label="Car" />
      <g
         inkscape:groupmode="layer"
         id="layer3"
         inkscape:label="ParkSymbol">
        <g
           id="g828">
          <path
             d="m 183.60157,174.26265 c 0.68814,-0.67224 0.79155,-1.55291 0.79155,-6.74133 0,-4.87561 -0.12826,-6.10647 -0.70038,-6.72409 -0.61605,-0.66501 -2.04493,-0.73933 -11.86883,-0.6174 l -11.16848,0.13862 -1.17345,1.16804 c -1.61462,1.60721 -3.06657,5.13637 -3.70857,9.01423 -0.50024,3.02155 -0.48074,3.30024 0.27251,3.89479 0.6444,0.50864 3.4808,0.64038 13.78771,0.64038 11.46728,0 13.06846,-0.0899 13.76794,-0.77324 z m -102.437525,0.12873 c 0.756591,-0.59719 0.777448,-0.87271 0.284632,-3.75986 -0.661512,-3.87533 -2.183723,-7.6128 -3.724648,-9.14512 l -1.174625,-1.16804 -11.168467,-0.13862 c -9.823897,-0.12202 -11.252784,-0.0477 -11.868835,0.61741 -0.572726,0.61821 -0.700372,1.85209 -0.700372,6.77 0,5.68505 0.05263,6.05378 0.961976,6.74132 1.348744,1.01976 26.108476,1.0947 27.390339,0.0828 z m 55.774525,7.41634 c 0.35851,-0.38697 0.75111,-1.07029 0.87246,-1.51845 0.12139,-0.44818 1.30534,-4.62747 2.6311,-9.28731 1.32573,-4.65982 2.28755,-8.81809 2.13736,-9.24058 -0.15018,-0.42248 -0.6269,-0.97257 -1.05937,-1.22239 -0.48005,-0.27733 -9.47896,-0.45425 -23.10567,-0.45425 -21.742259,0 -22.341754,0.0242 -23.185047,0.93445 -0.476114,0.51394 -0.865067,1.09212 -0.864331,1.28484 8.67e-4,0.19275 0.690353,2.76829 1.532501,5.72346 0.842148,2.95517 2.021064,7.10428 2.619789,9.22027 0.598742,2.11598 1.383846,4.16591 1.744658,4.55539 0.98378,1.06192 35.69301,1.06625 36.67655,0.005 z M 54.521551,225.5823 52.81173,223.73665 v -8.18964 -8.18966 l -1.872253,-0.97834 c -7.526091,-3.93276 -11.29304,-14.64532 -11.855896,-33.7161 -0.20006,-6.77848 -0.110898,-8.85963 0.510434,-11.91411 0.833568,-4.09787 2.748213,-9.42268 4.723314,-13.13599 l 1.290753,-2.4267 29.680042,-0.16564 c 26.570586,-0.14816 29.952126,-0.25035 32.277046,-0.97487 6.40063,-1.99466 10.1029,-5.17635 12.45275,-10.70177 l 1.39791,-3.28708 10.17159,0.28586 c 13.47611,0.37873 31.53219,1.99858 38.1122,3.41914 l 1.2216,0.26371 -0.63586,-2.97269 c -1.75996,-8.22792 -5.59102,-18.8572 -9.19142,-25.50158 -1.72377,-3.18113 -1.9562,-3.4142 -4.08879,-4.10046 -6.85919,-2.207249 -15.18646,-3.393544 -26.82443,-3.821433 l -8.11563,-0.298379 v -6.070875 -6.070857 l 9.63055,0.276906 c 21.42896,0.616131 30.82206,2.849624 35.77934,8.507655 3.63584,4.149782 11.04618,21.566513 13.96464,32.821473 0.54973,2.12002 1.2142,3.85456 1.47659,3.85456 0.66583,0 1.65187,-1.29802 2.706,-3.56217 0.4934,-1.0598 1.50492,-2.47898 2.2478,-3.15374 1.33086,-1.20881 1.4492,-1.22682 8.0597,-1.22682 h 6.709 l 1.26521,1.36573 c 1.23224,1.33014 1.26521,1.4893 1.26521,6.10979 0,4.62051 -0.0329,4.77967 -1.26521,6.10981 l -1.26521,1.36571 h -8.53633 -8.53633 l 2.20153,2.51275 c 4.04638,4.61835 7.20188,10.64973 9.27891,17.73557 0.89123,3.04048 0.97852,4.22169 0.95511,12.92433 -0.0537,19.95028 -3.83254,31.41812 -11.7092,35.53407 l -1.84522,0.96422 -0.13529,8.37461 -0.13528,8.3746 -1.41389,1.52628 -1.41388,1.52628 -7.1095,0.14798 -7.10952,0.14798 -1.6482,-1.62927 -1.6482,-1.62926 -0.14183,-6.63103 -0.14183,-6.63104 -3.97015,0.30358 c -20.82782,1.59263 -56.9152,1.59517 -81.305624,0.005 l -4.619459,-0.30103 -0.141718,6.58213 -0.141702,6.58215 -1.413878,1.52612 -1.413876,1.52612 -7.156097,0.14851 -7.156096,0.14851 -1.709823,-1.84565 z"
             style="fill:#000000;stroke-width:0.44969836"
             id="path854"
             inkscape:connector-curvature="0"
             transform="translate(-5.1691286,-27.427544)" />
          <path
             inkscape:connector-curvature="0"
             d="M 53.430068,72.047087 V 64.57155 h 5.984222 c 5.69559,0 6.029608,0.05209 6.925335,1.081367 0.853742,0.980959 0.941114,1.580667 0.941114,6.459631 0,5.017762 -0.06715,5.446392 -1.001772,6.394171 -0.927799,0.940874 -1.439183,1.015889 -6.925335,1.015889 H 53.430068 Z M 53.329689,105.57014 53.44574,94.473666 h 7.521157 c 9.857241,0 12.216097,-0.689768 15.878449,-4.643079 2.109063,-2.276616 2.631632,-3.194287 3.425406,-6.01525 0.85782,-3.048531 0.923976,-4.146286 0.785775,-13.038371 -0.135944,-8.74271 -0.243586,-9.927098 -1.08153,-11.894139 -1.316134,-3.08957 -4.153995,-6.222344 -7.006168,-7.734284 l -2.441835,-1.29442 H 55.161405 39.795815 l -0.11201,32.939021 c -0.06161,18.116476 -0.01708,33.207356 0.09897,33.535296 0.161186,0.45552 1.771042,0.56578 6.820932,0.46721 l 6.609951,-0.12908 z m -37.426361,32.89128 c -4.317465,-1.6192 -7.7720509,-5.04978 -9.7520487,-9.68429 L 5.1691286,126.47825 V 83.260376 40.042495 L 6.3326587,37.362608 C 7.8192476,33.938652 11.201035,30.288205 14.37299,28.683504 l 2.482642,-1.255959 h 43.499767 43.499771 l 2.48265,1.255959 c 3.17195,1.604701 6.55373,5.255148 8.04033,8.679104 l 1.16352,2.679887 v 43.217881 43.217874 l -1.16352,2.67988 c -1.4866,3.42396 -4.86838,7.07441 -8.04033,8.67911 l -2.48265,1.25596 -42.850521,0.10613 c -40.350417,0.0999 -42.981839,0.0569 -45.101321,-0.73796 z"
             style="fill:#000080;stroke-width:0.44969836"
             id="path837"
             transform="translate(-5.1691286,-27.427544)" />
        </g>
      </g>
    </g>
  </g>
</svg>
