<?xml version="1.0" encoding="UTF-8" standalone="no"?>
<!-- Created with Inkscape (http://www.inkscape.org/) -->

<svg
   xmlns:dc="http://purl.org/dc/elements/1.1/"
   xmlns:cc="http://creativecommons.org/ns#"
   xmlns:rdf="http://www.w3.org/1999/02/22-rdf-syntax-ns#"
   xmlns:svg="http://www.w3.org/2000/svg"
   xmlns="http://www.w3.org/2000/svg"
   xmlns:sodipodi="http://sodipodi.sourceforge.net/DTD/sodipodi-0.dtd"
   xmlns:inkscape="http://www.inkscape.org/namespaces/inkscape"
   viewBox="0 0 200 200"
   version="1.1"
   id="svg8"
   inkscape:version="0.92.4 (5da689c313, 2019-01-14)"
   sodipodi:docname="power-btn.svg">
  <defs
     id="defs2" />
  <sodipodi:namedview
     id="base"
     pagecolor="#ffffff"
     bordercolor="#666666"
     borderopacity="1.0"
     inkscape:pageopacity="0.0"
     inkscape:pageshadow="2"
     inkscape:zoom="0.98994949"
     inkscape:cx="324.11856"
     inkscape:cy="369.80016"
     inkscape:document-units="mm"
     inkscape:current-layer="layer6"
     showgrid="false"
     inkscape:snap-nodes="false"
     fit-margin-top="0"
     fit-margin-left="0"
     fit-margin-right="0"
     fit-margin-bottom="0"
     inkscape:window-width="1920"
     inkscape:window-height="1017"
     inkscape:window-x="1912"
     inkscape:window-y="-8"
     inkscape:window-maximized="1" />
  <metadata
     id="metadata5">
    <rdf:RDF>
      <cc:Work
         rdf:about="">
        <dc:format>image/svg+xml</dc:format>
        <dc:type
           rdf:resource="http://purl.org/dc/dcmitype/StillImage" />
        <dc:title></dc:title>
      </cc:Work>
    </rdf:RDF>
  </metadata>
  <g
     inkscape:label="Main"
     inkscape:groupmode="layer"
     id="layer1"
     transform="translate(-3.0523011,-49.051524)">
    <g
       inkscape:groupmode="layer"
       id="layer2"
       inkscape:label="Background"
       style="display:inline" />
    <g
       inkscape:groupmode="layer"
       id="layer3"
       inkscape:label="Background1"
       style="display:inline" />
    <g
       inkscape:groupmode="layer"
       id="layer4"
       inkscape:label="Background2"
       style="display:inline" />
    <g
       inkscape:groupmode="layer"
       id="layer5"
       inkscape:label="Background3"
       style="display:inline" />
    <g
       inkscape:groupmode="layer"
       id="layer6"
       inkscape:label="FrontBlackLayer"
       style="display:inline">
      <g
         id="g1102"
         transform="matrix(2.0026257,0,0,2.020039,-128.71316,-60.106498)">
        <path
           style="display:inline;fill:#1fb1d4;stroke-width:0.40000319"
           d="M 107.14702,152.51595 C 87.319734,148.94003 70.904481,131.7209 66.778683,112.52843 c -0.826937,-3.84676 -0.890856,-14.301942 -0.04463,-18.750812 1.69354,-8.90344 7.587998,-19.67145 14.71618,-26.28638 7.97629,-7.40198 17.369761,-11.7477 28.228817,-13.05956 13.26716,-1.60278 25.69453,1.69574 36.42379,9.66775 9.71167,7.21592 16.85045,18.76615 18.93061,30.62892 0.92406,5.26974 0.58215,16.303032 -0.64676,20.871112 -2.41627,8.98167 -6.74504,16.57789 -13.08371,22.95961 -7.22834,7.27743 -18.07503,12.73011 -28.06533,14.10856 -4.08472,0.5636 -12.56804,0.48364 -16.09063,-0.15168 z"
           id="path858"
           inkscape:connector-curvature="0"
           sodipodi:nodetypes="cscsssscsccc" />
        <path
           style="display:inline;fill:#178eaf;stroke-width:0.40000319"
           d="m 108.38963,152.67981 c -16.014302,-2.46585 -30.124512,-12.7717 -37.342332,-27.27418 -1.19963,-2.41035 -2.66824,-5.99601 -3.26357,-7.96812 -0.99514,-3.29647 -1.80557,-4.04721 -1.97004,-12.00126 -0.14536,-7.030294 0.65544,-9.503094 1.20007,-12.169534 2.87121,-14.05712 12.53807,-26.76836 25.52202,-33.55969 13.846422,-7.24244 31.581362,-7.48812 45.410512,-0.62904 14.11015,6.99846 24.40527,20.55621 27.05482,35.62881 0.78673,4.47548 0.7958,13.045874 0.0185,17.467744 -2.93257,16.68258 -14.39567,30.79159 -30.34491,37.34911 -5.60515,2.30455 -10.30938,3.21565 -17.44974,3.37963 -3.53413,0.0812 -7.51004,-0.0194 -8.83534,-0.22347 z m 18.67469,-4.09943 c 4.63885,-1.20161 6.45463,-1.90512 10.73087,-4.15761 9.64437,-5.08012 17.17587,-13.41713 21.31872,-23.59881 2.54055,-6.24378 3.09567,-9.45967 3.06034,-17.72908 -0.0275,-6.436584 -0.13918,-7.572854 -1.09017,-11.090514 -1.14462,-4.23394 -4.13481,-10.83177 -6.53438,-14.41807 -3.74344,-5.59479 -11.05779,-11.98591 -17.38076,-15.18694 -6.76132,-3.42293 -13.64531,-5.06054 -21.3496,-5.07876 -13.02784,-0.0308 -25.016442,5.15012 -34.149432,14.75784 -18.95145,19.93654 -15.8828,52.354634 6.51096,68.783644 5.35594,3.92935 12.857562,7.17959 19.411402,8.41043 4.94577,0.92883 14.52939,0.58818 19.47205,-0.69213 z M 106.984,147.5583 c -6.05416,-1.32826 -11.673882,-3.80043 -16.872452,-7.42234 -3.24348,-2.25977 -9.09015,-8.02796 -11.09439,-10.94547 -9.24442,-13.45679 -10.6515,-30.151814 -3.75347,-44.535024 7.31425,-15.25108 21.48806,-24.66183 38.346822,-25.46052 6.12566,-0.29021 10.85125,0.32306 16.26506,2.11082 9.89371,3.2671 17.6664,9.21383 23.66486,18.10549 9.55236,14.1597 9.54038,33.817934 -0.0295,48.451214 -5.71172,8.73377 -15.79329,16.07063 -26.24577,19.10036 -4.98068,1.44368 -15.06539,1.73978 -20.28112,0.59547 z m 14.76696,-29.7944 c 3.82662,-1.92067 6.11318,-5.37027 6.42227,-9.68894 0.22765,-3.18074 -0.3221,-5.31427 -2.01798,-7.83161 -1.352,-2.006884 -2.48283,-2.457484 -3.22765,-1.286104 -0.31437,0.49441 -0.0949,1.077174 0.94876,2.518804 1.16658,1.61149 1.38006,2.26716 1.51616,4.65656 0.19565,3.43495 -0.55581,5.59801 -2.6488,7.62453 -2.48451,2.40561 -5.95367,3.22063 -9.53482,2.24003 -2.15978,-0.59139 -5.58247,-3.98681 -6.17861,-6.12938 -0.91988,-3.30608 -0.10585,-6.97774 2.05273,-9.25878 0.81842,-0.864844 0.82191,-0.916814 0.11363,-1.693214 -1.0538,-1.15516 -1.52794,-1.00808 -2.87628,0.89223 -1.83066,2.580074 -2.3509,4.208344 -2.32309,7.270914 0.0829,9.13383 9.52377,14.81573 17.75368,10.68496 z m -4.11828,-12.17898 c 0.12221,-0.49303 0.17084,-4.21315 0.10805,-8.266934 l -0.11416,-7.37051 h -1.40562 -1.40562 l -0.10938,7.75718 c -0.0602,4.266444 -0.0207,7.986564 0.0878,8.266924 0.10845,0.28036 0.74158,0.50975 1.40695,0.50975 0.921,0 1.26282,-0.21397 1.43199,-0.89641 z"
           id="path856"
           inkscape:connector-curvature="0"
           sodipodi:nodetypes="ccsssssssscccsssscscssscscscsscssccccsssccscscccsccscccccscc" />
        <path
           style="display:inline;fill:#146f90;stroke-width:0.40000319"
           d="m 110.14199,152.56685 c -13.842503,-1.45153 -26.967608,-9.31937 -35.191386,-21.09546 -3.057794,-4.37863 -4.932427,-8.2279 -6.783653,-13.92917 l -1.77117,-6.28256 -0.283482,-7.36797 c -0.322454,-8.380853 0.646804,-9.544723 1.509439,-12.644283 2.607427,-9.36887 7.374114,-17.3393 14.153275,-23.66583 19.988447,-18.65387 50.924637,-17.9023 69.943147,1.69922 18.59734,19.16745 18.59587,49.341153 -0.003,68.456503 -10.85562,11.15686 -25.79088,16.48446 -41.57281,14.82955 z m 10.06715,-2.38114 c 11.61498,-1.2635 21.29585,-5.81243 29.11899,-13.68269 24.93483,-25.08502 14.63449,-66.793133 -19.19506,-77.724523 -11.50677,-3.71821 -24.07802,-2.68917 -35.523522,2.90782 -12.889259,6.303 -22.34609,18.7117 -25.178106,33.03723 -0.9791,4.9527 -0.89365,13.480813 0.182731,18.237003 2.188454,9.6701 6.158054,16.88181 13.145253,23.88145 7.482989,7.4963 17.602414,12.18858 28.805414,13.35678 4.29062,0.4474 4.41309,0.44722 8.6443,-0.0131 z m -8.75076,-2.19595 c -0.55221,-0.0979 -2.08836,-0.3645 -3.41366,-0.59251 -4.90732,-0.84429 -12.667382,-4.01876 -16.265055,-6.65366 -5.426152,-3.97408 -9.621769,-8.15645 -12.683625,-12.6436 -1.883424,-2.76016 -4.482666,-8.08714 -5.386657,-11.03962 -2.915488,-9.52213 -2.72582,-20.102703 0.512971,-28.615923 4.214279,-11.0773 11.560473,-19.14726 22.26923,-24.46325 17.333156,-8.60444 38.704466,-4.6304 51.947046,9.65969 7.87763,8.50076 11.71095,18.33172 11.64632,29.868163 -0.0523,9.34174 -2.14368,16.46683 -7.04247,23.99333 -8.09152,12.4318 -21.33326,20.02447 -35.76081,20.50486 -2.65061,0.0883 -5.27109,0.0804 -5.82329,-0.0175 z m 10.34359,-29.91909 c 5.72481,-2.87341 8.36224,-9.51007 6.1207,-15.40174 -0.87698,-2.30506 -2.89977,-5.047023 -3.72327,-5.047023 -0.6439,0 -1.89765,1.24073 -1.89765,1.87794 0,0.30757 0.53316,1.221013 1.1848,2.029883 1.37612,1.70815 2.16409,4.70752 1.78363,6.78929 -1.32745,7.26335 -10.0142,10.15727 -15.36687,5.11934 -3.55362,-3.34465 -3.80453,-8.36747 -0.62461,-12.50334 1.12635,-1.464943 0.87835,-2.638503 -0.65992,-3.122833 -1.15864,-0.36481 -2.14973,0.63974 -3.68657,3.736643 -5.271583,10.62278 6.21313,21.87064 16.86976,16.52184 z m -3.87332,-12.38104 c 0.46586,-1.19731 0.28211,-15.189163 -0.20985,-15.978823 -0.30634,-0.49172 -1.78791,-0.60419 -2.81393,-0.2136 -0.55111,0.20979 -0.63525,1.34002 -0.63525,8.53253 0,8.877623 -0.0522,8.662793 2.11837,8.724053 0.85915,0.0243 1.21199,-0.21946 1.54066,-1.06416 z"
           id="path854"
           inkscape:connector-curvature="0"
           sodipodi:nodetypes="csscscssccccssssssccccccssssscscccsssscccscsscccscc" />
        <path
           style="display:inline;fill:#144e65;stroke-width:0.40000319"
           d="m 108.86747,152.16653 c -6.92784,-0.88106 -15.622776,-4.34865 -21.862406,-8.71886 -8.36396,-5.8581 -15.43204,-15.6155 -18.31785,-25.28762 -0.58841,-1.97211 -1.45814,-5.02606 -1.60725,-5.99909 -0.30744,-1.56507 -1.3496,-6.14517 -0.22438,-15.91638 0.84451,-7.33362 5.18612,-16.68099 9.23151,-22.00685 2.7983,-3.68403 8.29599,-8.98049 11.70672,-11.27822 8.39855,-5.6579 17.916686,-8.52921 28.281726,-8.53169 15.70445,-0.004 30.16743,7.24943 39.65766,19.88831 6.11243,8.14039 9.04112,16.56802 9.4239,27.11827 0.53395,14.71682 -4.19762,26.8831 -14.32938,36.84516 -11.086,10.90032 -26.17582,15.89437 -41.96025,13.88697 z m 19.26889,-2.66541 c 19.057,-5.10858 32.84975,-20.82239 35.37782,-40.30522 1.20532,-9.288992 -0.69108,-19.49697 -5.19816,-27.98066 -4.83893,-9.10836 -13.4537,-17.02126 -23.13062,-21.24613 -13.34927,-5.82819 -27.59059,-5.44303 -40.796616,1.10334 -12.70884,6.29993 -20.96792,16.49253 -25.11284,30.99197 -1.21,4.23271 -1.54045,14.28242 -0.63824,19.40978 1.24045,7.04956 4.42945,14.66086 8.3465,19.92093 2.18011,2.92759 7.71209,8.42245 10.52954,10.45888 5.50363,3.97798 11.67403,6.71346 18.521636,8.21105 3.9487,0.8636 5.12112,0.94799 11.04417,0.79493 5.75974,-0.14884 7.20601,-0.32659 11.05681,-1.35887 z m -20.69536,-2.4343 c -12.762076,-2.68584 -23.176576,-10.72885 -29.694266,-22.93255 -3.62731,-6.79173 -5.24584,-13.35159 -5.24488,-21.25729 5.2e-4,-4.35077 0.16643,-5.64931 1.2198,-9.54747 1.51379,-5.60203 3.11756,-9.25968 5.95717,-13.58628 6.01874,-9.17052 16.07119,-16.01204 27.018326,-18.38817 3.90223,-0.847 12.24069,-1.05439 16.1047,-0.40055 13.9544,2.36128 25.57632,10.75509 31.7659,22.94258 3.41162,6.71761 4.74286,12.2513 4.70747,19.56799 -0.0464,9.59181 -2.26597,16.65826 -7.87693,25.07786 -6.68574,10.03236 -16.7832,16.72196 -28.24685,18.71361 -4.5361,0.78808 -11.46171,0.70445 -15.71044,-0.18973 z m 10.84595,-27.51283 c 4.36265,-0.82077 7.97209,-3.59549 9.75523,-7.49926 1.17908,-2.58133 1.18993,-7.49554 0.0222,-10.05039 -0.89835,-1.96548 -3.17176,-4.76064 -3.87199,-4.76064 -0.64128,0 -2.29352,1.64542 -2.29352,2.28405 0,0.303338 0.53288,1.21332 1.18418,2.02219 4.58761,5.69748 0.51866,14.04119 -6.83306,14.01172 -2.8124,-0.0113 -5.06295,-1.03952 -6.87709,-3.14204 -2.83702,-3.28803 -2.59551,-8.44997 0.55449,-11.85147 0.64399,-0.695412 0.71061,-1.01586 0.3501,-1.6841 -0.56125,-1.04034 -1.7898,-1.70801 -2.5855,-1.4051 -0.83396,0.31747 -2.53437,2.59026 -3.47347,4.6427 -1.16247,2.54062 -1.08712,7.43196 0.15501,10.06229 1.68659,3.57157 5.21867,6.45519 8.98497,7.33545 2.08426,0.48713 2.50731,0.4901 4.92849,0.0346 z m -0.6733,-12.84892 c 0.61758,-0.44798 0.67654,-1.35098 0.57877,-8.86454 l -0.10885,-8.36575 -1.89459,-0.1209 c -1.6927,-0.10802 -1.91882,-0.0231 -2.12197,0.79681 -0.12506,0.50474 -0.17611,4.40578 -0.11345,8.66898 l 0.11394,7.75126 1.00402,0.27675 c 1.51033,0.41632 1.79351,0.40044 2.54213,-0.14261 z"
           id="path852"
           inkscape:connector-curvature="0"
           sodipodi:nodetypes="ssscssscsssssscsssssscsscscssscsssscccssscccsscsccccccccscccc" />
        <g
           transform="translate(49.483642,-117.08583)"
           id="g920">
          <path
             id="path916"
             transform="matrix(0.26458333,0,0,0.26458333,-49.483642,117.08583)"
             d="m 434.41602,230.34766 c -17.44047,0.16044 -34.71153,3.16253 -50.73633,9.20312 C 311.149,266.89143 267.35812,341.56523 280.75,415.07031 c 3.79679,20.83971 7.32445,32.1855 15.10742,48.60547 22.33252,47.11571 58.90433,76.86256 108.82617,88.51367 18.56773,4.33346 55.69038,3.22738 74.04297,-2.20507 44.90608,-13.29257 78.56421,-41.97047 99.16797,-84.49219 16.91271,-34.90424 22.21616,-69.9644 15.8418,-104.74414 -6.65299,-36.29991 -24.37891,-67.06494 -53.1875,-92.31446 -28.57099,-25.04128 -67.76379,-38.43892 -106.13281,-38.08593 z m 0.89257,107.4082 c 0.99179,-0.0211 2.24435,0.0346 3.84375,0.13672 l 7.16016,0.45703 0.41211,31.61914 c 0.36953,28.39771 0.14666,31.81075 -2.1875,33.50391 -2.82943,2.05247 -3.89908,2.11255 -9.60742,0.53906 l -3.79492,-1.04688 -0.43165,-29.29492 c -0.2368,-16.11288 -0.043,-30.85794 0.42969,-32.76562 0.57586,-2.32416 1.20044,-3.08515 4.17578,-3.14844 z m 34.09375,29.95703 c 2.64654,0 11.23747,10.56556 14.63282,17.99414 4.41347,9.65613 4.37238,28.22817 -0.084,37.98438 -6.73942,14.7544 -20.38038,25.24162 -36.86914,28.34375 -9.15091,1.72157 -10.74943,1.71026 -18.62695,-0.13086 -14.23484,-3.32697 -27.58448,-14.22577 -33.95899,-27.72461 -4.69467,-9.94141 -4.97952,-28.42696 -0.58593,-38.0293 3.54936,-7.75725 9.97497,-16.34894 13.12695,-17.54883 3.00737,-1.14485 7.65218,1.37856 9.77344,5.31055 1.36255,2.52563 1.10976,3.73691 -1.32422,6.36523 -11.90551,12.85607 -12.8183,32.36577 -2.09571,44.79297 6.8566,7.94653 15.36265,11.83425 25.99219,11.87696 27.78603,0.11138 43.16517,-31.42521 25.82617,-52.95899 -2.46159,-3.05715 -4.47656,-6.49609 -4.47656,-7.64258 0,-2.41372 6.24619,-8.63281 8.66992,-8.63281 z"
             style="fill:#27282a;stroke-width:1.51182306"
             inkscape:connector-curvature="0" />
        </g>
      </g>
    </g>
  </g>
</svg>
